<svg width="28" height="28" viewBox="0 0 28 28" fill="none" xmlns="http://www.w3.org/2000/svg">
<path d="M14 18.375C16.4162 18.375 18.375 16.4162 18.375 14C18.375 11.5838 16.4162 9.625 14 9.625C11.5838 9.625 9.625 11.5838 9.625 14C9.625 16.4162 11.5838 18.375 14 18.375Z" stroke="#8247E5" stroke-width="2" stroke-linecap="round" stroke-linejoin="round"/>
<path d="M19.8078 22.75C17.8589 24.044 15.5336 24.65 13.201 24.472C10.8684 24.294 8.66199 23.3421 6.93198 21.7673C5.20196 20.1925 4.0474 18.0851 3.65148 15.7795C3.25556 13.4738 3.64096 11.102 4.74654 9.04027C5.85212 6.97859 7.61454 5.34517 9.75415 4.39919C11.8938 3.4532 14.288 3.24885 16.557 3.81855C18.826 4.38824 20.8397 5.69936 22.2787 7.54385C23.7177 9.38835 24.4995 11.6606 24.5 14C24.5 16.4172 23.625 18.375 21.4375 18.375C19.25 18.375 18.375 16.4172 18.375 14V9.62498" stroke="#8247E5" stroke-width="2" stroke-linecap="round" stroke-linejoin="round"/>
</svg>
