<svg width="28" height="28" viewBox="0 0 28 28" fill="none" xmlns="http://www.w3.org/2000/svg">
<path d="M14 2.625V25.375" stroke="#8247E5" stroke-width="2" stroke-linecap="round" stroke-linejoin="round"/>
<path d="M20.125 9.625C20.125 9.05047 20.0118 8.48156 19.792 7.95076C19.5721 7.41996 19.2498 6.93766 18.8436 6.53141C18.4373 6.12515 17.955 5.80289 17.4242 5.58303C16.8934 5.36316 16.3245 5.25 15.75 5.25H11.8125C10.6522 5.25 9.53938 5.71094 8.71891 6.53141C7.89844 7.35188 7.4375 8.46468 7.4375 9.625C7.4375 10.7853 7.89844 11.8981 8.71891 12.7186C9.53938 13.5391 10.6522 14 11.8125 14H16.625C17.7853 14 18.8981 14.4609 19.7186 15.2814C20.5391 16.1019 21 17.2147 21 18.375C21 19.5353 20.5391 20.6481 19.7186 21.4686C18.8981 22.2891 17.7853 22.75 16.625 22.75H11.375C10.2147 22.75 9.10188 22.2891 8.28141 21.4686C7.46094 20.6481 7 19.5353 7 18.375" stroke="#8247E5" stroke-width="2" stroke-linecap="round" stroke-linejoin="round"/>
</svg>
